<?xml version="1.0" encoding="UTF-8" standalone="no"?>
<svg
   height="48"
   viewBox="0 -960 960 960"
   width="48"
   version="1.1"
   id="svg1"
   sodipodi:docname="icon_48.svg"
   xml:space="preserve"
   inkscape:version="1.3 (0e150ed6c4, 2023-07-21)"
   xmlns:inkscape="http://www.inkscape.org/namespaces/inkscape"
   xmlns:sodipodi="http://sodipodi.sourceforge.net/DTD/sodipodi-0.dtd"
   xmlns="http://www.w3.org/2000/svg"
   xmlns:svg="http://www.w3.org/2000/svg"><defs
     id="defs1" /><sodipodi:namedview
     id="namedview1"
     pagecolor="#ffffff"
     bordercolor="#000000"
     borderopacity="0.25"
     inkscape:showpageshadow="2"
     inkscape:pageopacity="0.0"
     inkscape:pagecheckerboard="0"
     inkscape:deskcolor="#d1d1d1"
     inkscape:zoom="16.9375"
     inkscape:cx="24"
     inkscape:cy="24"
     inkscape:window-width="1920"
     inkscape:window-height="1009"
     inkscape:window-x="1912"
     inkscape:window-y="-8"
     inkscape:window-maximized="1"
     inkscape:current-layer="svg1" /><path
     id="path2"
     style="fill:#f9f9f9;stroke:#f9f9f9;stroke-width:40;stroke-dasharray:none"
     sodipodi:type="inkscape:offset"
     inkscape:radius="0"
     inkscape:original="M 245 -880 L 245 -820 L 180 -820 C 164 -820 150 -814 138 -802 C 126 -790 120 -776 120 -760 L 120 -140 C 120 -124 126 -110 138 -98 C 150 -86 164 -80 180 -80 L 780 -80 C 796 -80 810 -86 822 -98 C 834 -110 840 -124 840 -140 L 840 -760 C 840 -776 834 -790 822 -802 C 810 -814 796 -820 780 -820 L 715 -820 L 715 -880 L 650 -880 L 650 -820 L 310 -820 L 310 -880 L 245 -880 z "
     d="m 245,-880 v 60 h -65 c -16,0 -30,6 -42,18 -12,12 -18,26 -18,42 v 620 c 0,16 6,30 18,42 12,12 26,18 42,18 h 600 c 16,0 30,-6 42,-18 12,-12 18,-26 18,-42 v -620 c 0,-16 -6,-30 -18,-42 -12,-12 -26,-18 -42,-18 h -65 v -60 h -65 v 60 H 310 v -60 z" /><path
     d="M180-80q-24 0-42-18t-18-42v-620q0-24 18-42t42-18h65v-60h65v60h340v-60h65v60h65q24 0 42 18t18 42v620q0 24-18 42t-42 18H180Zm0-60h600v-430H180v430Z"
     id="path1"
     style="fill:#d40000" /><path
     d="m 480.59041,-196.01476 q -32.91667,0 -62.08333,-12.5 -29.16667,-12.5 -51.04167,-34.375 -21.875,-21.875 -34.375,-51.042 -12.5,-29.166 -12.5,-62.083 0,-33.333 12.5,-62.292 12.5,-28.958 34.375,-50.833 21.875,-21.875 51.04167,-34.375 29.16666,-12.5 62.08333,-12.5 33.33333,0 62.29167,12.5 28.95833,12.5 50.83333,34.375 21.875,21.875 34.375,50.833 12.5,28.959 12.5,62.292 0,32.917 -12.5,62.083 -12.5,29.167 -34.375,51.042 -21.875,21.875 -50.83333,34.375 -28.95834,12.5 -62.29167,12.5 z m 0,-31.25 q 7.08333,-7.083 14.16667,-26.458 7.08333,-19.375 10.83333,-42.292 h -50 q 3.75,22.917 10.83333,42.292 7.08334,19.375 14.16667,26.458 z m -37.91667,-4.167 q -5.83333,-12.5 -10.20833,-28.75 -4.375,-16.25 -7.29167,-35.833 h -59.58333 q 12.08333,23.75 32.08333,40.625 20,16.875 45,23.958 z m 75.83334,0 q 25,-7.083 45,-23.958 20,-16.875 32.08333,-40.625 h -59.58333 q -2.91667,19.583 -7.29167,35.833 -4.375,16.25 -10.20833,28.75 z m -164.16667,-94.583 h 67.08333 q -0.83333,-7.917 -1.04166,-15.625 -0.20834,-7.708 -0.20834,-15.208 0,-7.5 0.20834,-14.792 0.20833,-7.292 1.04166,-14.375 h -67.08333 q -2.08334,7.917 -2.91667,15.208 -0.83333,7.292 -0.83333,14.792 0,7.5 0.83333,14.792 0.83333,7.291 2.91667,15.208 z m 97.5,0 h 57.5 q 0.83333,-8.333 1.04167,-15.625 0.20833,-7.292 0.20833,-14.375 0,-7.083 -0.20833,-14.583 -0.20834,-7.5 -1.04167,-15.417 h -57.5 q -0.83333,7.917 -1.04167,15.417 -0.20833,7.5 -0.20833,14.583 0,7.083 0.20833,14.583 0.20834,7.5 1.04167,15.417 z m 87.91667,0 h 67.08333 q 2.08333,-7.917 2.91667,-15.208 0.83333,-7.292 0.83333,-14.792 0,-7.5 -0.83333,-15 -0.83334,-7.5 -2.91667,-15 h -67.08333 q 0.83333,7.917 1.04166,15.625 0.20834,7.708 0.20834,15.208 0,7.5 -0.20834,14.792 -0.20833,7.292 -1.04166,14.375 z m -3.75,-90 h 59.58333 q -12.08333,-23.75 -32.08333,-40.625 -20,-16.875 -45,-23.958 5.83333,12.5 10.20833,28.75 4.375,16.25 7.29167,35.833 z m -80.41667,0 h 50 q -3.75,-22.917 -10.83333,-42.292 -7.08334,-19.375 -14.16667,-26.458 -7.08333,7.083 -14.16667,26.458 -7.08333,19.375 -10.83333,42.292 z m -90,0 h 59.58333 q 2.91667,-19.583 7.29167,-35.833 4.375,-16.25 10.20833,-28.75 -25,7.083 -45,23.958 -20,16.875 -32.08333,40.625 z"
     id="path1-6"
     style="stroke-width:0.416667;fill:#d40000" /></svg>
